<mxfile host="Electron" modified="2024-03-01T00:07:57.320Z" agent="Mozilla/5.0 (Macintosh; Intel Mac OS X 10_15_7) AppleWebKit/537.36 (KHTML, like Gecko) draw.io/21.6.8 Chrome/114.0.5735.289 Electron/25.5.0 Safari/537.36" etag="sCMSUy2NEHA89mSelDO1" version="21.6.8" type="device">
  <diagram name="PÃ¡gina-1" id="FMAH_7WxQpiRSmoaticN">
    <mxGraphModel dx="2261" dy="907" grid="1" gridSize="10" guides="1" tooltips="1" connect="1" arrows="1" fold="1" page="1" pageScale="1" pageWidth="827" pageHeight="1169" math="0" shadow="0">
      <root>
        <mxCell id="0" />
        <mxCell id="1" parent="0" />
        <mxCell id="zQ2VIRhxHs8HWgFeWWur-1" value="Tasa" style="ellipse;shape=umlEntity;whiteSpace=wrap;html=1;hachureGap=4;fontFamily=Architects Daughter;fontSource=https%3A%2F%2Ffonts.googleapis.com%2Fcss%3Ffamily%3DArchitects%2BDaughter;fontSize=15;fillColor=#ffe6cc;strokeColor=#d79b00;sketch=1;curveFitting=1;jiggle=2;" parent="1" vertex="1">
          <mxGeometry x="374" y="80" width="80" height="80" as="geometry" />
        </mxCell>
        <mxCell id="j42ES8RexVcNzHJCEDlX-40" style="edgeStyle=orthogonalEdgeStyle;hachureGap=4;orthogonalLoop=1;jettySize=auto;html=1;exitX=1;exitY=0;exitDx=0;exitDy=0;fontFamily=Architects Daughter;fontSource=https%3A%2F%2Ffonts.googleapis.com%2Fcss%3Ffamily%3DArchitects%2BDaughter;fontSize=16;dashed=1;curved=1;entryX=0.5;entryY=1;entryDx=0;entryDy=0;sketch=1;curveFitting=1;jiggle=2;" edge="1" parent="1" source="j42ES8RexVcNzHJCEDlX-1" target="j42ES8RexVcNzHJCEDlX-34">
          <mxGeometry relative="1" as="geometry" />
        </mxCell>
        <mxCell id="j42ES8RexVcNzHJCEDlX-41" style="edgeStyle=orthogonalEdgeStyle;rounded=0;hachureGap=4;orthogonalLoop=1;jettySize=auto;html=1;exitX=0.5;exitY=1;exitDx=0;exitDy=0;entryX=0.5;entryY=0;entryDx=0;entryDy=0;fontFamily=Architects Daughter;fontSource=https%3A%2F%2Ffonts.googleapis.com%2Fcss%3Ffamily%3DArchitects%2BDaughter;fontSize=16;sketch=1;curveFitting=1;jiggle=2;" edge="1" parent="1" source="j42ES8RexVcNzHJCEDlX-1" target="j42ES8RexVcNzHJCEDlX-9">
          <mxGeometry relative="1" as="geometry" />
        </mxCell>
        <mxCell id="j42ES8RexVcNzHJCEDlX-48" style="edgeStyle=orthogonalEdgeStyle;rounded=0;hachureGap=4;orthogonalLoop=1;jettySize=auto;html=1;exitX=0.5;exitY=0;exitDx=0;exitDy=0;entryX=0.5;entryY=1;entryDx=0;entryDy=0;fontFamily=Architects Daughter;fontSource=https%3A%2F%2Ffonts.googleapis.com%2Fcss%3Ffamily%3DArchitects%2BDaughter;fontSize=16;sketch=1;curveFitting=1;jiggle=2;" edge="1" parent="1" source="j42ES8RexVcNzHJCEDlX-1" target="zQ2VIRhxHs8HWgFeWWur-1">
          <mxGeometry relative="1" as="geometry" />
        </mxCell>
        <mxCell id="j42ES8RexVcNzHJCEDlX-1" value="ProcedimientoGestionTributaria" style="ellipse;shape=umlEntity;whiteSpace=wrap;html=1;hachureGap=4;fontFamily=Architects Daughter;fontSource=https%3A%2F%2Ffonts.googleapis.com%2Fcss%3Ffamily%3DArchitects%2BDaughter;fontSize=15;fillColor=#dae8fc;strokeColor=#6c8ebf;dashed=1;labelBackgroundColor=default;sketch=1;curveFitting=1;jiggle=2;" vertex="1" parent="1">
          <mxGeometry x="374" y="220" width="80" height="80" as="geometry" />
        </mxCell>
        <mxCell id="j42ES8RexVcNzHJCEDlX-54" style="edgeStyle=orthogonalEdgeStyle;rounded=0;hachureGap=4;orthogonalLoop=1;jettySize=auto;html=1;exitX=0.5;exitY=0;exitDx=0;exitDy=0;entryX=0.5;entryY=1;entryDx=0;entryDy=0;fontFamily=Architects Daughter;fontSource=https%3A%2F%2Ffonts.googleapis.com%2Fcss%3Ffamily%3DArchitects%2BDaughter;fontSize=16;sketch=1;curveFitting=1;jiggle=2;" edge="1" parent="1" source="j42ES8RexVcNzHJCEDlX-2" target="j42ES8RexVcNzHJCEDlX-28">
          <mxGeometry relative="1" as="geometry" />
        </mxCell>
        <mxCell id="j42ES8RexVcNzHJCEDlX-56" style="edgeStyle=orthogonalEdgeStyle;rounded=0;hachureGap=4;orthogonalLoop=1;jettySize=auto;html=1;exitX=0.5;exitY=1;exitDx=0;exitDy=0;entryX=0.5;entryY=0;entryDx=0;entryDy=0;fontFamily=Architects Daughter;fontSource=https%3A%2F%2Ffonts.googleapis.com%2Fcss%3Ffamily%3DArchitects%2BDaughter;fontSize=16;sketch=1;curveFitting=1;jiggle=2;" edge="1" parent="1" source="j42ES8RexVcNzHJCEDlX-2" target="j42ES8RexVcNzHJCEDlX-11">
          <mxGeometry relative="1" as="geometry" />
        </mxCell>
        <mxCell id="j42ES8RexVcNzHJCEDlX-62" style="edgeStyle=orthogonalEdgeStyle;hachureGap=4;orthogonalLoop=1;jettySize=auto;html=1;exitX=1;exitY=0;exitDx=0;exitDy=0;entryX=0;entryY=0.5;entryDx=0;entryDy=0;fontFamily=Architects Daughter;fontSource=https%3A%2F%2Ffonts.googleapis.com%2Fcss%3Ffamily%3DArchitects%2BDaughter;fontSize=16;curved=1;dashed=1;sketch=1;curveFitting=1;jiggle=2;" edge="1" parent="1" source="j42ES8RexVcNzHJCEDlX-2" target="j42ES8RexVcNzHJCEDlX-1">
          <mxGeometry relative="1" as="geometry">
            <Array as="points">
              <mxPoint x="227" y="382" />
              <mxPoint x="227" y="290" />
              <mxPoint x="374" y="290" />
            </Array>
          </mxGeometry>
        </mxCell>
        <mxCell id="j42ES8RexVcNzHJCEDlX-2" value="ProcedimientoLiquidacion" style="ellipse;shape=umlEntity;whiteSpace=wrap;html=1;hachureGap=4;fontFamily=Architects Daughter;fontSource=https%3A%2F%2Ffonts.googleapis.com%2Fcss%3Ffamily%3DArchitects%2BDaughter;fontSize=15;fillColor=#ffe6cc;strokeColor=#d79b00;labelBackgroundColor=default;sketch=1;curveFitting=1;jiggle=2;" vertex="1" parent="1">
          <mxGeometry y="370" width="80" height="80" as="geometry" />
        </mxCell>
        <mxCell id="j42ES8RexVcNzHJCEDlX-59" style="edgeStyle=orthogonalEdgeStyle;rounded=0;hachureGap=4;orthogonalLoop=1;jettySize=auto;html=1;exitX=0.5;exitY=1;exitDx=0;exitDy=0;fontFamily=Architects Daughter;fontSource=https%3A%2F%2Ffonts.googleapis.com%2Fcss%3Ffamily%3DArchitects%2BDaughter;fontSize=16;sketch=1;curveFitting=1;jiggle=2;" edge="1" parent="1" source="j42ES8RexVcNzHJCEDlX-3" target="j42ES8RexVcNzHJCEDlX-12">
          <mxGeometry relative="1" as="geometry" />
        </mxCell>
        <mxCell id="j42ES8RexVcNzHJCEDlX-63" style="edgeStyle=orthogonalEdgeStyle;hachureGap=4;orthogonalLoop=1;jettySize=auto;html=1;exitX=1;exitY=0;exitDx=0;exitDy=0;entryX=0;entryY=1;entryDx=0;entryDy=0;fontFamily=Architects Daughter;fontSource=https%3A%2F%2Ffonts.googleapis.com%2Fcss%3Ffamily%3DArchitects%2BDaughter;fontSize=16;curved=1;dashed=1;sketch=1;curveFitting=1;jiggle=2;" edge="1" parent="1" source="j42ES8RexVcNzHJCEDlX-3" target="j42ES8RexVcNzHJCEDlX-1">
          <mxGeometry relative="1" as="geometry" />
        </mxCell>
        <mxCell id="j42ES8RexVcNzHJCEDlX-3" value="ProcedimientoRecurso" style="ellipse;shape=umlEntity;whiteSpace=wrap;html=1;hachureGap=4;fontFamily=Architects Daughter;fontSource=https%3A%2F%2Ffonts.googleapis.com%2Fcss%3Ffamily%3DArchitects%2BDaughter;fontSize=15;fillColor=#ffe6cc;strokeColor=#d79b00;labelBackgroundColor=default;sketch=1;curveFitting=1;jiggle=2;" vertex="1" parent="1">
          <mxGeometry x="170" y="380" width="80" height="80" as="geometry" />
        </mxCell>
        <mxCell id="j42ES8RexVcNzHJCEDlX-38" style="edgeStyle=orthogonalEdgeStyle;hachureGap=4;orthogonalLoop=1;jettySize=auto;html=1;exitX=0.5;exitY=0;exitDx=0;exitDy=0;entryX=1;entryY=1;entryDx=0;entryDy=0;fontFamily=Architects Daughter;fontSource=https%3A%2F%2Ffonts.googleapis.com%2Fcss%3Ffamily%3DArchitects%2BDaughter;fontSize=16;dashed=1;curved=1;sketch=1;curveFitting=1;jiggle=2;" edge="1" parent="1" source="j42ES8RexVcNzHJCEDlX-4" target="j42ES8RexVcNzHJCEDlX-1">
          <mxGeometry relative="1" as="geometry" />
        </mxCell>
        <mxCell id="j42ES8RexVcNzHJCEDlX-47" style="edgeStyle=orthogonalEdgeStyle;hachureGap=4;orthogonalLoop=1;jettySize=auto;html=1;exitX=0.5;exitY=1;exitDx=0;exitDy=0;entryX=1;entryY=0;entryDx=0;entryDy=0;fontFamily=Architects Daughter;fontSource=https%3A%2F%2Ffonts.googleapis.com%2Fcss%3Ffamily%3DArchitects%2BDaughter;fontSize=16;curved=1;sketch=1;curveFitting=1;jiggle=2;" edge="1" parent="1" source="j42ES8RexVcNzHJCEDlX-4" target="j42ES8RexVcNzHJCEDlX-13">
          <mxGeometry relative="1" as="geometry" />
        </mxCell>
        <mxCell id="j42ES8RexVcNzHJCEDlX-4" value="ProcedimientoAplazamientoFraccionamiento" style="ellipse;shape=umlEntity;whiteSpace=wrap;html=1;hachureGap=4;fontFamily=Architects Daughter;fontSource=https%3A%2F%2Ffonts.googleapis.com%2Fcss%3Ffamily%3DArchitects%2BDaughter;fontSize=15;fillColor=#ffe6cc;strokeColor=#d79b00;labelBackgroundColor=default;sketch=1;curveFitting=1;jiggle=2;" vertex="1" parent="1">
          <mxGeometry x="620" y="380" width="80" height="80" as="geometry" />
        </mxCell>
        <mxCell id="j42ES8RexVcNzHJCEDlX-9" value="ExpedienteGestionTributaria" style="ellipse;shape=umlEntity;whiteSpace=wrap;html=1;hachureGap=4;fontFamily=Architects Daughter;fontSource=https%3A%2F%2Ffonts.googleapis.com%2Fcss%3Ffamily%3DArchitects%2BDaughter;fontSize=15;fillColor=#dae8fc;strokeColor=#6c8ebf;dashed=1;labelBackgroundColor=default;sketch=1;curveFitting=1;jiggle=2;" vertex="1" parent="1">
          <mxGeometry x="374" y="460" width="80" height="80" as="geometry" />
        </mxCell>
        <mxCell id="j42ES8RexVcNzHJCEDlX-64" style="edgeStyle=orthogonalEdgeStyle;hachureGap=4;orthogonalLoop=1;jettySize=auto;html=1;exitX=1;exitY=0;exitDx=0;exitDy=0;entryX=0.5;entryY=1;entryDx=0;entryDy=0;fontFamily=Architects Daughter;fontSource=https%3A%2F%2Ffonts.googleapis.com%2Fcss%3Ffamily%3DArchitects%2BDaughter;fontSize=16;curved=1;dashed=1;sketch=1;curveFitting=1;jiggle=2;" edge="1" parent="1" source="j42ES8RexVcNzHJCEDlX-11" target="j42ES8RexVcNzHJCEDlX-9">
          <mxGeometry relative="1" as="geometry" />
        </mxCell>
        <mxCell id="j42ES8RexVcNzHJCEDlX-11" value="ExpedienteLiquidacion" style="ellipse;shape=umlEntity;whiteSpace=wrap;html=1;hachureGap=4;fontFamily=Architects Daughter;fontSource=https%3A%2F%2Ffonts.googleapis.com%2Fcss%3Ffamily%3DArchitects%2BDaughter;fontSize=15;fillColor=#ffe6cc;strokeColor=#d79b00;labelBackgroundColor=default;sketch=1;curveFitting=1;jiggle=2;" vertex="1" parent="1">
          <mxGeometry y="630" width="80" height="80" as="geometry" />
        </mxCell>
        <mxCell id="j42ES8RexVcNzHJCEDlX-58" style="edgeStyle=orthogonalEdgeStyle;hachureGap=4;orthogonalLoop=1;jettySize=auto;html=1;exitX=1;exitY=0.5;exitDx=0;exitDy=0;entryX=0;entryY=1;entryDx=0;entryDy=0;fontFamily=Architects Daughter;fontSource=https%3A%2F%2Ffonts.googleapis.com%2Fcss%3Ffamily%3DArchitects%2BDaughter;fontSize=16;dashed=1;curved=1;sketch=1;curveFitting=1;jiggle=2;" edge="1" parent="1" source="j42ES8RexVcNzHJCEDlX-12" target="j42ES8RexVcNzHJCEDlX-9">
          <mxGeometry relative="1" as="geometry" />
        </mxCell>
        <mxCell id="j42ES8RexVcNzHJCEDlX-12" value="ExpedienteRecurso" style="ellipse;shape=umlEntity;whiteSpace=wrap;html=1;hachureGap=4;fontFamily=Architects Daughter;fontSource=https%3A%2F%2Ffonts.googleapis.com%2Fcss%3Ffamily%3DArchitects%2BDaughter;fontSize=15;fillColor=#ffe6cc;strokeColor=#d79b00;labelBackgroundColor=default;sketch=1;curveFitting=1;jiggle=2;" vertex="1" parent="1">
          <mxGeometry x="170" y="530" width="80" height="80" as="geometry" />
        </mxCell>
        <mxCell id="j42ES8RexVcNzHJCEDlX-43" style="edgeStyle=orthogonalEdgeStyle;hachureGap=4;orthogonalLoop=1;jettySize=auto;html=1;exitX=0.5;exitY=0;exitDx=0;exitDy=0;entryX=1;entryY=1;entryDx=0;entryDy=0;fontFamily=Architects Daughter;fontSource=https%3A%2F%2Ffonts.googleapis.com%2Fcss%3Ffamily%3DArchitects%2BDaughter;fontSize=16;dashed=1;curved=1;sketch=1;curveFitting=1;jiggle=2;" edge="1" parent="1" source="j42ES8RexVcNzHJCEDlX-13" target="j42ES8RexVcNzHJCEDlX-9">
          <mxGeometry relative="1" as="geometry" />
        </mxCell>
        <mxCell id="j42ES8RexVcNzHJCEDlX-13" value="ExpedienteAplazamientoFraccionamiento" style="ellipse;shape=umlEntity;whiteSpace=wrap;html=1;hachureGap=4;fontFamily=Architects Daughter;fontSource=https%3A%2F%2Ffonts.googleapis.com%2Fcss%3Ffamily%3DArchitects%2BDaughter;fontSize=15;fillColor=#ffe6cc;strokeColor=#d79b00;labelBackgroundColor=default;sketch=1;curveFitting=1;jiggle=2;" vertex="1" parent="1">
          <mxGeometry x="510" y="630" width="80" height="80" as="geometry" />
        </mxCell>
        <mxCell id="j42ES8RexVcNzHJCEDlX-49" style="edgeStyle=orthogonalEdgeStyle;rounded=0;hachureGap=4;orthogonalLoop=1;jettySize=auto;html=1;exitX=1;exitY=0.5;exitDx=0;exitDy=0;entryX=0;entryY=0.5;entryDx=0;entryDy=0;fontFamily=Architects Daughter;fontSource=https%3A%2F%2Ffonts.googleapis.com%2Fcss%3Ffamily%3DArchitects%2BDaughter;fontSize=16;sketch=1;curveFitting=1;jiggle=2;" edge="1" parent="1" source="j42ES8RexVcNzHJCEDlX-20" target="zQ2VIRhxHs8HWgFeWWur-1">
          <mxGeometry relative="1" as="geometry" />
        </mxCell>
        <mxCell id="j42ES8RexVcNzHJCEDlX-20" value="Fase" style="ellipse;shape=umlEntity;whiteSpace=wrap;html=1;hachureGap=4;fontFamily=Architects Daughter;fontSource=https%3A%2F%2Ffonts.googleapis.com%2Fcss%3Ffamily%3DArchitects%2BDaughter;fontSize=15;fillColor=#dae8fc;strokeColor=#6c8ebf;dashed=1;sketch=1;curveFitting=1;jiggle=2;" vertex="1" parent="1">
          <mxGeometry y="80" width="80" height="80" as="geometry" />
        </mxCell>
        <mxCell id="j42ES8RexVcNzHJCEDlX-51" style="edgeStyle=orthogonalEdgeStyle;rounded=0;hachureGap=4;orthogonalLoop=1;jettySize=auto;html=1;exitX=1;exitY=0.5;exitDx=0;exitDy=0;fontFamily=Architects Daughter;fontSource=https%3A%2F%2Ffonts.googleapis.com%2Fcss%3Ffamily%3DArchitects%2BDaughter;fontSize=16;dashed=1;sketch=1;curveFitting=1;jiggle=2;" edge="1" parent="1" source="j42ES8RexVcNzHJCEDlX-24" target="j42ES8RexVcNzHJCEDlX-20">
          <mxGeometry relative="1" as="geometry" />
        </mxCell>
        <mxCell id="j42ES8RexVcNzHJCEDlX-24" value="FaseEjecutiva" style="ellipse;shape=umlEntity;whiteSpace=wrap;html=1;hachureGap=4;fontFamily=Architects Daughter;fontSource=https%3A%2F%2Ffonts.googleapis.com%2Fcss%3Ffamily%3DArchitects%2BDaughter;fontSize=15;fillColor=#ffe6cc;strokeColor=#d79b00;labelBackgroundColor=default;sketch=1;curveFitting=1;jiggle=2;" vertex="1" parent="1">
          <mxGeometry x="-160" y="80" width="80" height="80" as="geometry" />
        </mxCell>
        <mxCell id="j42ES8RexVcNzHJCEDlX-50" style="edgeStyle=orthogonalEdgeStyle;rounded=0;hachureGap=4;orthogonalLoop=1;jettySize=auto;html=1;exitX=0.5;exitY=0;exitDx=0;exitDy=0;entryX=0.5;entryY=1;entryDx=0;entryDy=0;fontFamily=Architects Daughter;fontSource=https%3A%2F%2Ffonts.googleapis.com%2Fcss%3Ffamily%3DArchitects%2BDaughter;fontSize=16;dashed=1;sketch=1;curveFitting=1;jiggle=2;" edge="1" parent="1" source="j42ES8RexVcNzHJCEDlX-28" target="j42ES8RexVcNzHJCEDlX-20">
          <mxGeometry relative="1" as="geometry" />
        </mxCell>
        <mxCell id="j42ES8RexVcNzHJCEDlX-28" value="FasePropuesta" style="ellipse;shape=umlEntity;whiteSpace=wrap;html=1;hachureGap=4;fontFamily=Architects Daughter;fontSource=https%3A%2F%2Ffonts.googleapis.com%2Fcss%3Ffamily%3DArchitects%2BDaughter;fontSize=15;fillColor=#ffe6cc;strokeColor=#d79b00;labelBackgroundColor=default;sketch=1;curveFitting=1;jiggle=2;" vertex="1" parent="1">
          <mxGeometry y="210" width="80" height="80" as="geometry" />
        </mxCell>
        <mxCell id="j42ES8RexVcNzHJCEDlX-52" style="edgeStyle=orthogonalEdgeStyle;hachureGap=4;orthogonalLoop=1;jettySize=auto;html=1;exitX=1;exitY=0.5;exitDx=0;exitDy=0;entryX=0;entryY=1;entryDx=0;entryDy=0;fontFamily=Architects Daughter;fontSource=https%3A%2F%2Ffonts.googleapis.com%2Fcss%3Ffamily%3DArchitects%2BDaughter;fontSize=16;curved=1;sketch=1;curveFitting=1;jiggle=2;" edge="1" parent="1" source="j42ES8RexVcNzHJCEDlX-31" target="j42ES8RexVcNzHJCEDlX-28">
          <mxGeometry relative="1" as="geometry" />
        </mxCell>
        <mxCell id="j42ES8RexVcNzHJCEDlX-31" value="Liquidacion" style="ellipse;shape=umlEntity;whiteSpace=wrap;html=1;hachureGap=4;fontFamily=Architects Daughter;fontSource=https%3A%2F%2Ffonts.googleapis.com%2Fcss%3Ffamily%3DArchitects%2BDaughter;fontSize=15;fillColor=#ffe6cc;strokeColor=#d79b00;labelBackgroundColor=default;sketch=1;curveFitting=1;jiggle=2;" vertex="1" parent="1">
          <mxGeometry x="-240" y="210" width="80" height="80" as="geometry" />
        </mxCell>
        <mxCell id="j42ES8RexVcNzHJCEDlX-34" value="Procedimiento" style="ellipse;shape=umlEntity;whiteSpace=wrap;html=1;hachureGap=4;fontFamily=Architects Daughter;fontSource=https%3A%2F%2Ffonts.googleapis.com%2Fcss%3Ffamily%3DArchitects%2BDaughter;fontSize=15;fillColor=#ffe6cc;strokeColor=#d79b00;labelBackgroundColor=default;sketch=1;curveFitting=1;jiggle=2;" vertex="1" parent="1">
          <mxGeometry x="510" y="120" width="80" height="80" as="geometry" />
        </mxCell>
      </root>
    </mxGraphModel>
  </diagram>
</mxfile>
